# xmcd CD database file
# Copyright (C) 1997 Ti Kan
# 
# Track frame offsets:
#     150
#     21595
#     40952
#     63990
#     82597
#     102747
#     119652
#     142850
#     164795
#     185892
#     208327
# 
# Disc length: 3037 seconds
# 
# Revision: 1
# Processed by: cddbd v1.4b41PL1 Copyright (c) Steve Scherf et al.
# Submitted via: DiscPlay 4.0.3
# 
DISCID=a90bdb0b
DTITLE=Tony Thompson - Sexsational
DYEAR=1900
DGENRE=
TTITLE0=I Know
TTITLE1=What's Goin' On
TTITLE2=I Wanna Love Like That
TTITLE3=Sweat
TTITLE4=Handle Our Business
TTITLE5=My Cherie Amour
TTITLE6=Come Over
TTITLE7=Dance With Me
TTITLE8=Goodbye Eyes
TTITLE9=Slave
TTITLE10=Break It Down
EXTD=
EXTT0=
EXTT1=
EXTT2=
EXTT3=
EXTT4=
EXTT5=
EXTT6=
EXTT7=
EXTT8=
EXTT9=
EXTT10=
PLAYORDER=
